<svg height="200px" width="200px" version="1.1" id="Layer_1" xmlns="http://www.w3.org/2000/svg" xmlns:xlink="http://www.w3.org/1999/xlink" viewBox="-30.72 -30.72 573.44 573.44" xml:space="preserve" fill="#000000" stroke="#000000" stroke-width="3.072">
  <g id="SVGRepo_bgCarrier" stroke-width="0"></g>
  <g id="SVGRepo_tracerCarrier" stroke-linecap="round" stroke-linejoin="round"></g>
  <g id="SVGRepo_iconCarrier">
    <circle style="fill:#99DAEA;" cx="256" cy="256" r="256"></circle>
    <g>
      <path style="opacity:0.15;fill:#1E252B;enable-background:new ;" d="M405.602,264.362h106.247 c0.089-2.778,0.151-5.563,0.151-8.362c0-2.802-0.061-5.59-0.151-8.37H405.602c-1.292-48.35-13.736-95.957-36.199-138.193 c-2.577-4.843-5.293-9.61-8.13-14.304c17.667-12.7,32.865-28.444,44.904-46.457c-4.51-3.273-9.129-6.402-13.853-9.381 c-10.775,16.149-24.344,30.294-40.109,41.753c-21.347-31.263-48.595-58.622-80.293-80.541C266.655,0.184,261.349,0,256,0 c-5.349,0-10.655,0.184-15.922,0.508c-31.697,21.921-58.948,49.28-80.295,80.545c-15.766-11.459-29.336-25.604-40.111-41.753 c-4.725,2.978-9.343,6.108-13.853,9.381c12.04,18.014,27.24,33.757,44.908,46.458c-2.837,4.693-5.552,9.458-8.127,14.299 c-22.464,42.235-34.909,89.843-36.199,138.193H0.151C0.061,250.41,0,253.198,0,256c0,2.8,0.061,5.584,0.151,8.362h106.248 c1.289,48.353,13.734,95.965,36.199,138.202c2.576,4.842,5.291,9.608,8.127,14.299c-17.668,12.7-32.866,28.444-44.907,46.458 c4.51,3.273,9.128,6.402,13.853,9.38c10.777-16.149,24.345-30.295,40.111-41.754c21.347,31.265,48.598,58.625,80.295,80.546 C245.345,511.816,250.651,512,256,512c5.35,0,10.655-0.184,15.923-0.508c31.696-21.92,58.946-49.278,80.293-80.541 c15.765,11.459,29.333,25.604,40.109,41.753c4.725-2.978,9.344-6.108,13.853-9.381c-12.039-18.014-27.238-33.757-44.904-46.457 c2.838-4.694,5.554-9.46,8.13-14.304C391.868,360.325,404.313,312.715,405.602,264.362z M247.634,496.36 c-29.424-20.605-54.154-45.562-73.865-74.537c22.502-13.087,47.781-20.555,73.865-21.875V496.36z M247.634,383.195 c-29.281,1.346-57.67,9.727-82.875,24.517c-2.554-4.264-5.037-8.585-7.389-13.005c-21.185-39.828-32.952-84.723-34.236-130.345 h124.5V383.195z M247.634,247.63h-124.5c1.286-45.617,13.052-90.51,34.236-130.336c2.351-4.421,4.836-8.741,7.389-13.005 c25.205,14.79,53.594,23.171,82.875,24.517V247.63z M247.634,112.052c-26.084-1.322-51.363-8.789-73.865-21.877 c19.713-28.974,44.441-53.931,73.865-74.536V112.052z M264.366,15.64c29.423,20.604,54.152,45.56,73.864,74.533 c-22.502,13.088-47.78,20.556-73.864,21.879V15.64z M264.366,128.804c29.281-1.346,57.669-9.728,82.874-24.519 c2.554,4.266,5.039,8.587,7.391,13.009c21.183,39.827,32.95,84.718,34.236,130.336H264.366V128.804z M264.366,496.36v-96.412 c26.084,1.322,51.363,8.791,73.864,21.879C318.518,450.8,293.789,475.756,264.366,496.36z M354.631,394.706 c-2.353,4.422-4.837,8.743-7.391,13.009c-25.205-14.791-53.593-23.173-82.874-24.519V264.362h124.501 C387.583,309.983,375.815,354.877,354.631,394.706z"></path>
      <path style="opacity:0.1;fill:#1E252B;enable-background:new ;" d="M286.118,482.44c-141.385,0-256-114.614-256-256 c0-63.946,23.448-122.414,62.213-167.28C35.917,106.118,0,176.862,0,256c0,141.386,114.615,256,256,256 c77.439,0,146.844-34.385,193.787-88.719C405.415,460.217,348.364,482.44,286.118,482.44z"></path>
    </g>
    <path style="fill:#FF6361;" d="M395.936,315.115c14.238,0,98.624-103.141,98.624-176.956c0-54.468-44.156-98.624-98.624-98.624 s-98.623,44.156-98.623,98.624C297.311,211.974,381.698,315.115,395.936,315.115z"></path>
    <path style="opacity:0.15;enable-background:new ;" d="M317.018,125.142c0-30.158,13.542-57.15,34.87-75.241 c-32.355,16.18-54.577,49.62-54.577,88.257c0,73.815,84.385,176.956,98.623,176.956c3.119,0,9.603-4.949,17.829-13.454 C395.245,294.465,317.018,196.218,317.018,125.142z"></path>
    <circle style="fill:#FFFFFF;" cx="395.936" cy="138.162" r="34.87"></circle>
  </g>
</svg>